<svg height="200" viewBox="0 0 1024 1024" width="200" xmlns="http://www.w3.org/2000/svg"><path d="m228.864 520.704c7.68-4.096 16.896-6.656 26.112-6.656h1.536v-20.48c0-16.896 13.824-30.72 30.72-30.72h429.056c16.896 0 30.72 13.824 30.72 30.72v20.48h5.12v-28.16h12.8v29.184c3.072.512 6.144 1.536 9.216 2.56v-34.816c0-24.576-19.968-44.544-44.544-44.544h-293.376v-21.504c0-6.144-5.12-10.752-10.752-10.752h-115.712c-6.144 0-10.752 5.12-10.752 10.752v21.504h-26.112c-24.576 0-44.544 19.968-44.544 44.544v37.888zm-12.8 9.216v-47.616c0-31.232 25.6-56.832 56.832-56.832h13.312v-8.704c0-12.8 10.752-23.552 23.552-23.552h115.712c12.8 0 23.552 10.752 23.552 23.552v8.704h281.088c31.232 0 56.832 25.6 56.832 56.832v41.472c14.848 10.24 24.576 27.136 24.576 46.592v.512l-26.624 367.616c0 17.408-8.192 33.28-20.992 43.52h44.544v12.8h-708.608v-12.8h148.48c-12.8-10.24-20.992-26.112-20.992-43.52l-28.672-368.128c0-15.872 6.656-30.208 17.408-40.448zm53.248-15.872h379.904v-28.16h12.8v28.16h22.016v-28.16h12.8v28.16h22.016v-28.16h12.8v28.16h4.096v-20.48c0-10.24-8.192-17.92-17.92-17.92h-429.056c-10.24 0-17.92 8.192-17.92 17.92v20.48zm104.96-233.984c.512 0 1.024.512 1.024.512 3.072 1.536 6.144 2.56 9.216 4.096-1.536-4.608-2.56-9.728-3.072-14.848l-.512-3.584 12.8-1.536.512 3.584c.512 8.704 5.632 20.992 12.8 23.04h1.024l3.584.512c7.168 1.536 14.336 2.048 20.992 2.048-7.168-3.072-12.8-7.168-16.384-12.288-16.896-22.528-35.328-35.328-55.296-37.888 1.536 15.36 6.656 31.744 10.752 33.792zm-22.528-12.288c-.512-1.024-.512-2.048-1.024-3.072-2.048-7.68-3.072-14.848-3.584-20.992-10.24 1.024-19.456 4.096-27.136 8.192 1.024 2.048 2.56 4.096 3.584 6.144l6.144-7.168 2.56 2.56c4.608 4.096 11.264 9.216 19.456 14.336zm54.272 36.864c-2.048-.512-3.072-.512-4.608-1.024-4.608-1.024-9.728-2.56-14.336-4.096-6.144 5.12-13.312 9.216-20.48 11.264 11.264 8.192 23.04 12.8 34.816 12.8 15.36 0 29.184-6.656 40.96-16.896-4.096.512-8.192.512-12.288.512-7.68.512-15.36-.512-24.064-2.56zm-55.808-8.704 2.56 2.56c2.048 2.048 6.144 2.56 11.776 0 2.56-1.024 5.632-2.56 8.704-4.608l-3.072-1.536c-16.896-8.192-31.232-17.408-40.448-25.088 6.144 11.264 13.312 20.48 20.48 28.672zm111.104-7.68h2.048l10.752 1.024-3.584 5.12-3.072 4.096c-3.584 5.12-10.24 12.288-18.944 19.456-14.336 11.264-30.208 18.432-47.616 18.432-34.816 0-66.56-28.16-94.72-82.944l-2.56-4.608 2.56-1.536 2.048-1.536c9.216-7.168 25.088-13.824 44.032-13.824 27.136 0 52.224 14.848 73.216 43.52 5.632 6.656 16.384 10.752 35.84 12.8zm-115.2 405.504-46.592-43.008 8.704-9.216 46.592 43.008 43.008-46.592 9.216 8.704-43.008 46.592 46.592 43.008-8.704 9.216-46.592-43.008-43.008 46.592-9.216-8.704zm307.2-9.216 43.008-46.592 9.216 8.704-43.008 46.592 46.592 43.008-8.704 9.216-46.592-43.008-43.008 46.592-9.216-8.704 43.008-46.592-46.592-43.008 8.704-9.216zm-4.096-157.696h-394.24c-24.064 0-43.52 19.456-43.52 43.008l28.672 368.128c0 24.064 19.456 43.52 43.52 43.52h444.928c24.064 0 43.52-19.456 43.52-43.52v-.512l26.624-367.616c0-20.48-14.336-37.888-33.792-42.496v98.304h-12.288v-99.328h-22.016v99.328h-12.8v-99.328h-21.504v99.328h-12.8v-99.328h-22.016v99.328h-12.8v-98.816zm-408.064-338.944h.512c11.776-1.536 20.992-6.656 24.064-14.336 2.048-5.12 1.536-10.24-2.048-14.848-8.704-11.776-31.744-16.896-61.952-13.312-14.848 2.048-24.064 17.408-22.016 35.84.512 3.584 1.536 7.68 3.072 11.776 17.92 1.024 37.376-.512 58.368-5.12zm-32.768 34.304c20.48 13.312 51.2 18.944 87.552 16.384h3.584l1.024 12.8h-3.584c-6.144.512-12.288.512-17.92.512-31.232 0-57.856-6.656-77.312-18.944-11.264-7.168-20.48-16.896-26.624-27.648-27.648-3.072-51.2-12.288-70.656-28.672-26.112-22.528-41.472-54.784-49.152-92.16-4.608-22.528-5.12-41.984-4.608-54.272v-3.584l12.8.512v5.12c0 4.608 0 10.752.512 17.92.512 10.24 2.048 20.992 4.096 31.744 6.656 34.816 20.992 64.512 45.056 84.992 15.36 13.312 34.304 21.504 56.832 25.088-1.024-3.072-1.536-6.144-1.536-9.216-1.536-11.776 1.024-23.04 6.656-32.256 6.144-9.728 15.36-15.872 26.112-17.408 34.816-4.096 61.952 2.56 73.728 18.432 6.144 8.192 7.168 18.432 3.584 27.136-5.12 11.776-17.92 19.968-33.792 21.504-18.944 4.096-36.864 6.144-53.248 5.632 3.584 6.144 9.216 11.776 16.896 16.384zm206.848 212.992v-24.064h12.8v24.064zm-71.168 0v-24.064h12.8v24.064zm-18.432 0v-24.064h12.8v24.064zm-16.896 0v-24.064h12.8v24.064zm67.072 482.816-.512 2.56h-13.312l1.024-4.608c17.408-64 75.776-109.568 142.848-109.568s125.44 45.568 142.848 109.568l1.024 4.608h-13.312l-.512-2.56c-16.384-57.856-69.12-98.816-130.048-98.816s-113.664 40.96-130.048 98.816zm476.672 41.984v-12.8h67.072v12.8zm-21.504 33.28v-12.8h121.344v12.8zm74.752-486.912c-20.48 0-36.864-16.896-36.864-36.864 0-20.48 16.896-36.864 36.864-36.864 20.48 0 36.864 16.384 36.864 36.864 0 19.968-16.384 36.864-36.864 36.864zm0-61.44c-13.312 0-24.576 10.752-24.576 24.576 0 13.312 10.752 24.576 24.576 24.576s24.576-10.752 24.576-24.576c-.512-13.824-11.264-24.576-24.576-24.576zm-818.176 278.016c-16.896 0-30.208-13.824-30.208-30.208 0-16.896 13.824-30.208 30.208-30.208 16.896 0 30.208 13.824 30.208 30.208.512 16.384-13.312 30.208-30.208 30.208zm0-48.128c-9.728 0-17.92 8.192-17.92 17.92s8.192 17.92 17.92 17.92 17.92-8.192 17.92-17.92c0-10.24-7.68-17.92-17.92-17.92zm574.976-422.912c-6.144 0-10.752 4.608-10.752 10.752s4.608 10.752 10.752 10.752 10.752-4.608 10.752-10.752c0-5.632-4.608-10.752-10.752-10.752zm0 34.304c-12.8 0-23.552-10.752-23.552-23.552s10.752-23.552 23.552-23.552 23.552 10.752 23.552 23.552c0 13.312-10.752 23.552-23.552 23.552zm200.704-6.144c-6.144 0-10.752 4.608-10.752 10.752s4.608 10.752 10.752 10.752 10.752-4.608 10.752-10.752c0-5.632-5.12-10.752-10.752-10.752zm0 34.304c-12.8 0-23.552-10.752-23.552-23.552s10.752-23.552 23.552-23.552 23.552 10.752 23.552 23.552c0 13.312-10.752 23.552-23.552 23.552zm-769.024 253.44c-14.848 0-27.136-12.288-27.136-27.136s12.288-27.136 27.136-27.136 27.136 12.288 27.136 27.136-12.288 27.136-27.136 27.136zm0-40.96c-7.68 0-14.336 6.144-14.336 14.336 0 7.68 6.144 14.336 14.336 14.336 7.68 0 14.336-6.144 14.336-14.336s-6.144-14.336-14.336-14.336zm-89.088 467.456v-12.8h59.392v12.8zm966.656-1.536v-12.8h47.104v12.8z"/></svg>