<svg height="200" viewBox="0 0 1024 1024" width="200" xmlns="http://www.w3.org/2000/svg"><path d="m810.71002091 411.34213229q-3.51412183 0-14.93592384 0 0-17.57060924 0-68.52718798 0-77.31309661-37.77831986-142.32616277-38.6565483-65.01306615-104.54784291-102.79138601-65.01306615-38.6565483-141.4479343-38.65654828-76.43486817 0-142.32616275 38.65654828-65.01306615 37.77831986-103.66961446 102.79138601-37.77831986 65.01306615-37.77831986 142.32616277 0 22.84239601 0 68.52718798-3.51412183 0-14.93592384 0-28.99241121 0-50.95657877 21.08593908-21.0859391 21.96416754-21.08593908 50.95657877 0 19.32827415 0 58.86305091 0 43.04889862 0 129.14790383 0 86.09900523 0 215.24690908 0 28.99241121 21.08593908 50.95657876 21.96416754 21.0859391 50.95657877 21.08593909 199.43275676 0 597.41883381 0 28.99241121 0 50.95657876-21.08593909 21.0859391-21.96416754 21.08593907-50.95657876 0-134.41969061 0-403.25786382 0-30.75007617-21.08593907-51.83480724-21.0859391-20.20650262-50.95657876-20.2065026zm-298.71002091-316.28063013q101.91315753 0 174.83269583 72.92074631 72.92074631 72.04130984 72.9207463 174.83269584 0 22.84239601 0 68.52718798-123.87611706 0-495.50688426 0 0-17.57060924 0-68.52718798 0-102.791386 72.9207463-174.83269584 72.92074631-72.92074631 174.83269583-72.92074631zm334.73067582 791.57980378q0 14.93592385-11.421802 25.47828937-10.54236553 10.54236553-24.60006092 10.54236554-199.43275676 0-597.41883381 0-14.05648738 0-24.60006094-10.54236554-11.42180201-10.54236553-11.42180196-25.47828937 0-50.0783503 0-151.11207138 0-15.81415229 0-40.41421323 0-17.57060924 0-40.41421325 0-65.8912946 0-171.31857397 0-14.93592385 11.42180196-25.4782894 10.54236553-10.54236553 24.60006094-10.54236552 199.43275676 0 597.41883381 0 14.05648738 0 24.60006092 10.54236552 11.42180201 10.54236553 11.421802 25.4782894 0 134.41969061 0 403.25786381zm-334.73067582-299.58824939q-18.45004569 0-30.75007617 13.17825893-12.30003045 14.05648738-12.30003046 34.26419801 0 25.47828939 21.96416753 40.41421324 0 26.35651784 0 78.19132508 0 10.54236553 7.02824369 16.69238076 6.15001524 7.0282437 14.93592387 7.02824368 9.66413707 0 16.69238078-7.02824368 6.15001524-6.15001524 6.15001522-16.69238076 0-26.35651784 0-79.07076155 22.84239601-14.93592385 22.842396-40.41421324-2.63589338-19.32827415-15.81415229-33.38476154-13.17825892-13.17825892-30.75007616-13.17825893z"/></svg>