<svg height="200" viewBox="0 0 1024 1024" width="200" xmlns="http://www.w3.org/2000/svg"><path d="m831.508941 378.49040267h-63.960731v-63.960731c0-141.29812-114.544803-255.842922-255.842922-255.842923s-255.841899 114.545826-255.841899 255.842923v63.960731h-63.964824c-35.322483 0-63.956637 28.634154-63.956638 63.956637v447.728184c0 35.322483 28.634154 63.956637 63.956638 63.956638h639.610376c35.322483 0 63.956637-28.634154 63.956637-63.956638v-447.728184c0-35.32146-28.634154-63.956637-63.956637-63.956637zm-511.684822-63.960731c0-105.97359 85.908602-191.882192 191.882192-191.882192s191.882192 85.908602 191.882192 191.882192v63.960731h-383.764384zm511.684822 543.924083c0 17.520025-14.202467 31.722492-31.722492 31.722493h-576.161299c-17.520025 0-31.722492-14.202467-31.722492-31.722493v-384.28013c0-17.520025 14.202467-31.722492 31.722492-31.722492h576.161299c17.520025 0 31.722492 14.202467 31.722492 31.722492z"/><path d="m511.706311 506.41186367c-70.64906 0-127.921461 57.272401-127.921461 127.921461 0 59.605539 40.766472 109.689215 95.939049 123.890658v36.269042c0 17.520025 14.202467 31.722492 31.722492 31.722492h.515747c17.520025 0 31.722492-14.202467 31.722492-31.722492v-36.268019c55.174624-14.20042 95.943143-64.285119 95.943142-123.891681 0-70.64906-57.272401-127.921461-127.921461-127.921461zm0 191.882192c-35.32453 0-63.960731-28.636201-63.960731-63.960731s28.636201-63.960731 63.960731-63.960731 63.960731 28.636201 63.960731 63.960731-28.636201 63.960731-63.960731 63.960731z"/></svg>