<svg height="200" viewBox="0 0 1024 1024" width="200" xmlns="http://www.w3.org/2000/svg"><g fill="#515151"><path d="m245.08475 951.56675a83.7459 83.7459 0 0 1 -83.349-84.34125v-143.380125h-52.58925a25.7985 25.7985 0 0 1 0-51.597h52.093125v-127.504125h-52.093125a25.7985 25.7985 0 0 1 0-51.597h52.093125v-141.395625h-52.093125a25.7985 25.7985 0 1 1 0-51.597h51.597v-147.84525a84.043575 84.043575 0 0 1 83.349-84.34125h613.2105a83.7459 83.7459 0 0 1 83.349 84.34125v714.916125a84.043575 84.043575 0 0 1 -83.349 84.34125zm-30.75975-84.34125a31.15665 31.15665 0 0 0 29.7675 31.255875h443.039625v-775.443375h-443.039625a29.7675 29.7675 0 0 0 -29.7675 29.7675v147.84525h61.5195a25.7985 25.7985 0 0 1 0 51.597h-61.5195v140.8995h61.5195a25.7985 25.7985 0 1 1 0 51.597h-61.5195v127.504125h61.5195a25.7985 25.7985 0 1 1 0 51.597h-61.5195zm642.978 29.7675a29.7675 29.7675 0 0 0 29.7675-29.7675v-715.41225a29.7675 29.7675 0 0 0 -29.7675-29.7675h-120.558375v774.94725z"/><path d="m408.806 745.674875a25.4512125 25.4512125 0 0 1 -16.86825-6.449625 22.127175 22.127175 0 0 1 -7.441875-16.372125 26.493075 26.493075 0 0 1 7.441875-19.348875l50.108625-53.085375-45.147375-49.6125a28.676025 28.676025 0 0 1 -7.441875-19.348875 24.80625 24.80625 0 0 1 7.938-16.372125 26.4434625 26.4434625 0 0 1 16.86825-6.449625 25.6496625 25.6496625 0 0 1 18.85275 8.434125l42.66675 47.628 41.178375-44.65125a27.088425 27.088425 0 0 1 18.85275-7.938 25.4512125 25.4512125 0 0 1 16.86825 6.449625 22.127175 22.127175 0 0 1 7.441875 16.372125 26.493075 26.493075 0 0 1 -7.441875 19.348875l-44.155125 47.131875 47.131875 52.58925c8.93025 10.418625 8.93025 26.79075 0 35.224875a25.1535375 25.1535375 0 0 1 -16.372125 6.449625 25.897725 25.897725 0 0 1 -19.348875-8.434125l-44.65125-49.6125-47.628 50.108625a25.1535375 25.1535375 0 0 1 -18.85275 7.938z"/><path d="m406.8215 492.155a25.4512125 25.4512125 0 0 1 -16.86825-6.449625 22.127175 22.127175 0 0 1 -7.441875-16.372125 26.493075 26.493075 0 0 1 7.441875-19.348875l50.108625-53.085375-45.147375-49.6125a23.8636125 23.8636125 0 0 1 -6.94575-18.356625 25.7985 25.7985 0 0 1 7.938-17.364375 25.1535375 25.1535375 0 0 1 16.372125-6.449625 25.897725 25.897725 0 0 1 19.348875 8.434125l42.66675 47.628 41.178375-44.65125a27.088425 27.088425 0 0 1 18.85275-7.938 25.4512125 25.4512125 0 0 1 16.86825 6.449625 22.127175 22.127175 0 0 1 7.441875 16.372125 26.493075 26.493075 0 0 1 -7.441875 19.348875l-44.65125 47.131875 47.131875 52.58925c8.93025 10.418625 8.93025 26.79075 0 35.224875a25.1535375 25.1535375 0 0 1 -16.372125 6.449625 25.897725 25.897725 0 0 1 -19.348875-8.434125l-44.65125-49.6125-47.628 50.60475a28.9737 28.9737 0 0 1 -18.85275 7.441875z"/></g></svg>