<svg height="200" viewBox="0 0 1024 1024" width="200" xmlns="http://www.w3.org/2000/svg"><path d="m827.27532722 954.67044102h-632.38488077c-58.13087226 0-105.32693284-47.19606059-105.32693285-105.32693285v-685.15416832a105.11529146 105.11529146 0 0 1 105.32693285-105.32693286h632.38488077c58.13087226 0 105.32693284 47.26660773 105.32693284 105.32693286v685.15416832c0 58.34251455-47.26660773 105.32693284-105.32693284 105.32693285zm52.55764529-790.48110117a52.76928757 52.76928757 0 0 0 -52.76928668-52.76928668h-632.38488077a52.98092897 52.98092897 0 0 0 -52.55764617 52.76928668v685.15416832c0 29.2065304 23.56275628 52.76928757 52.76928756 52.76928756h632.38488077a52.76928757 52.76928757 0 0 0 52.76928758-52.76928756v-685.15416832zm-131.64102906 579.8977826h-474.28866035a26.3140962 26.3140962 0 0 1 0-52.62819329h474.28866034a26.3140962 26.3140962 0 0 1 0 52.55764617zm0-210.93605512h-158.02567328a26.3140962 26.3140962 0 0 1 0-52.55764527h158.02567328a26.3140962 26.3140962 0 0 1 0 52.55764527zm0-210.86550707h-105.32693284a26.3140962 26.3140962 0 0 1 0-52.55764529h105.32693284a26.3140962 26.3140962 0 0 1 0 52.55764529zm-373.61784088 203.31695952a19.47102087 19.47102087 0 0 1 -30.47638055 0l-91.35859184-106.45568784a27.866134 27.866134 0 0 1 0-35.41468157 19.47102087 19.47102087 0 0 1 30.5469268 0l76.19094959 88.67779905 167.19680575-195.3451283a19.47102087 19.47102087 0 0 1 30.47637968 0c8.46566117 9.87660468 8.46566117 25.60862489 0 35.41468157l-182.57608943 213.05246997z"/></svg>