<svg height="200" viewBox="0 0 1024 1024" width="200" xmlns="http://www.w3.org/2000/svg"><path d="m509.305123 61.965284c-248.552889 0-450.036763 201.485921-450.036763 450.033693 0 248.546749 201.483874 450.03267 450.036763 450.03267 248.540609 0 450.0296-201.484897 450.0296-450.03267s-201.48899-450.033693-450.0296-450.033693zm266.700201 313.785589-317.132824 320.432986c-.058328.113587-.170892.113587-.286526.229221-.113587.058328-.113587.290619-.290619.290619-2.413979 2.530636-5.351891 3.797489-8.229428 5.41022-1.441838.860601-2.534729 2.071172-4.03285 2.64934-4.544503 1.896186-9.381671 2.762927-14.216793 2.762927-4.89345 0-9.7869-.867764-14.392802-2.883677-1.497097-.688685-2.705622-1.896186-4.14746-2.705622-2.820232-1.554402-5.810333-3.047406-8.230452-5.466502-.057305-.058328-.11461-.172939-.170892-.286526-.058328-.058328-.232291-.058328-.290619-.290619l-156.732646-160.825872c-14.680351-15.027252-14.275121-39.151695.808412-53.892421 15.026228-14.508435 39.09132-14.276145 53.712319.923022l129.672338 133.021619 289.844318-292.910143c14.679327-14.968923 38.744419-15.087627 53.712319-.288572 14.911617 14.736633 15.138791 38.917359.404205 53.83z" fill="#1296db"/></svg>