<svg height="200" viewBox="0 0 1024 1024" width="200" xmlns="http://www.w3.org/2000/svg"><g fill="#707070"><path d="m188.8 135.7c-29.7 0-53.8 24.1-53.8 53.7v644.7c0 29.7 24.1 53.7 53.8 53.7h645.4c29.7 0 53.8-24.1 53.8-53.7v-644.7c0-29.7-24.1-53.7-53.8-53.7zm-13-71.1h671.5c61.8 0 111.9 50.1 111.9 111.8v670.8c0 61.7-50.1 111.8-111.9 111.8h-671.5c-61.8 0-111.9-50-111.9-111.8v-670.8c0-61.8 50.1-111.8 111.9-111.8zm0 0"/><path d="m328 328h-88c-19.8 0-36-16.2-36-36s16.2-36 36-36h88c19.8 0 36 16.2 36 36s-16.2 36-36 36zm228 4h-88c-19.8 0-36-16.2-36-36s16.2-36 36-36h88c19.8 0 36 16.2 36 36s-16.2 36-36 36zm228 0h-88c-19.8 0-36-16.2-36-36s16.2-36 36-36h88c19.8 0 36 16.2 36 36s-16.2 36-36 36zm-456 214h-88c-19.8 0-36-16.2-36-36s16.2-36 36-36h88c19.8 0 36 16.2 36 36s-16.2 36-36 36zm228 4h-88c-19.8 0-36-16.2-36-36s16.2-36 36-36h88c19.8 0 36 16.2 36 36s-16.2 36-36 36zm228 0h-88c-19.8 0-36-16.2-36-36s16.2-36 36-36h88c19.8 0 36 16.2 36 36s-16.2 36-36 36zm-456 214h-88c-19.8 0-36-16.2-36-36s16.2-36 36-36h88c19.8 0 36 16.2 36 36s-16.2 36-36 36zm228 4h-88c-19.8 0-36-16.2-36-36s16.2-36 36-36h88c19.8 0 36 16.2 36 36s-16.2 36-36 36zm228 0h-88c-19.8 0-36-16.2-36-36s16.2-36 36-36h88c19.8 0 36 16.2 36 36s-16.2 36-36 36z"/></g></svg>