<svg height="200" viewBox="0 0 1024 1024" width="200" xmlns="http://www.w3.org/2000/svg"><path d="m64.397 838.943v-642.276c0-31.33 17.9-73.849 39.163-96.226 19.022-19.022 55.949-35.808 92.871-35.808h631.089c23.497 0 68.252 8.954 93.99 34.687 24.618 24.618 38.043 49.235 38.043 115.252v597.518c0 81.68-66.017 147.696-148.819 147.696h-598.638c-63.776 0-117.489-40.284-138.745-100.701-3.356-6.712-6.717-13.429-8.954-20.142zm49.232-326.731v290.925c0 66.017 41.403 107.418 107.421 107.418h581.85c66.018 0 107.421-41.401 107.421-107.418v-581.852c0-66.018-41.403-107.421-107.421-107.421h-581.85c-66.018 0-107.421 41.403-107.421 107.421zm533.736 86.158 127.562 127.555c6.712 6.718 15.665 16.786 14.545 23.5-1.12 12.307-6.712 27.972-16.785 35.805-13.425 11.191-29.09 5.597-42.52-6.712-36.922-38.04-74.97-74.968-111.892-111.897-5.597-5.589-10.073-10.068-19.021-17.9-1.12 8.955-2.24 15.668-2.24 21.257v109.664c0 29.087-13.425 42.518-34.687 42.518-21.263 0-33.566-15.664-33.566-43.641v-203.646c0-31.333 12.304-43.643 43.634-43.643h205.889c26.851 0 42.519 13.425 42.519 34.687 0 21.263-16.785 33.566-43.639 33.566-39.163-1.113-79.441-1.113-118.609-1.113-2.238-2.243-4.473-2.243-11.19 0zm-271.558-168.611c-7.834-7.834-12.31-13.426-16.786-19.022-36.929-38.043-74.97-74.97-111.891-111.897-19.028-19.021-20.145-38.043-3.362-52.587 14.549-13.429 33.57-12.31 51.471 5.592 42.519 41.403 83.924 83.922 129.799 129.797 1.12-13.424 1.12-21.257 1.12-27.974 0-36.923 0-74.965 1.121-111.892 1.116-23.499 15.665-35.808 34.687-34.687 17.9 1.12 32.451 14.544 32.451 35.807a7189.918 7189.918 0 0 1 0 219.312c0 22.377-14.551 35.807-36.929 36.923a7012.556 7012.556 0 0 1 -217.075 0c-23.498 0-38.044-15.666-36.925-35.802 1.117-20.141 15.667-32.451 40.281-32.451 42.521-1.119 85.041-1.119 132.038-1.119zm-52.935-152.527"/></svg>