<svg height="200" viewBox="0 0 1024 1024" width="200" xmlns="http://www.w3.org/2000/svg"><path d="m741.62724606 958.05940141c-12.71422841 0-27.00833225-3.76160641-40.2491861-10.68296111l-189.05832315-98.17791979-190.33727041 98.02745527a82.75533499 82.75533499 0 0 1 -90.72993968-7.07181923 93.58876062 93.58876062 0 0 1 -33.85445509-89.45099419l38.89500789-209.59669256-149.18529883-144.21997876a97.8769916 97.8769916 0 0 1 -23.17149401-92.23458242l.30092821-1.12848185c10.83342563-33.70399055 37.69129334-57.32687732 70.34203477-61.91603648l207.18926525-39.12070425 93.0621352-196.20537507c14.89596024-31.07086688 45.289738-51.00737904 77.4890867-51.00737904 33.47829419 0 64.6996256 20.68883396 77.71478221 51.6092363l92.761207 195.52828597 207.26449705 37.61606152c32.87643781 4.89008824 59.88476918 29.41575958 69.06308842 62.59312559 10.23156836 32.65074143 1.88080276 68.46123113-21.59161856 92.53551063l-.52662544.60185726-148.73390611 145.42369242 37.61606154 209.89762165c6.01857009 33.62875873-6.77089102 67.55844568-33.62875875 88.69867238-14.29410298 12.03713932-32.19934871 18.43187029-50.63121812 18.28140576zm-229.23227742-179.65430843 200.86976697 104.42218627a41.75382797 41.75382797 0 0 0 17.30338845 5.04055191c7.22228376 0 13.84271024-2.25696367 18.80803032-6.54519465l.82755364-.75232094a38.21791791 38.21791791 0 0 0 14.51979934-36.86374059l-40.5501143-226.22299192 159.94349263-156.4075826a38.89500703 38.89500703 0 0 0 8.80215835-38.74454335l-.45139274-1.42941004a33.32783054 33.32783054 0 0 0 -27.30926046-24.75136858l-.90278547-.15046366-221.25767185-40.09872157-99.60733073-210.04808617a34.60677604 34.60677604 0 0 0 -31.22133052-20.31267307 36.41234698 36.41234698 0 0 0 -31.74795597 21.59161943l-98.85500891 208.61867528-222.46138549 41.97952433c-13.54178205 1.7303391-23.99904678 11.059122-28.81390322 25.57892222a43.70986343 43.70986343 0 0 0 10.005872 39.27116792l160.09395717 154.90293986-41.97952432 226.22299191a39.12070338 39.12070338 0 0 0 14.44456751 36.78850791c5.56717735 4.28823099 12.71422841 6.6956592 20.23744035 6.69565918a33.10213418 33.10213418 0 0 0 16.09967479-4.06253463l.75232094-.45139273 202.37440969-104.27172172z"/></svg>