<svg height="200" viewBox="0 0 1024 1024" width="200" xmlns="http://www.w3.org/2000/svg"><path d="m741.888 945.664c-12.8 0-27.136-3.584-39.936-10.24l-188.416-94.208-189.44 94.208c-11.776 6.144-25.6 9.728-39.936 9.728-18.432 0-35.84-5.632-50.688-16.384-26.624-19.968-39.936-54.272-33.792-85.504l38.912-201.216-148.48-138.24c-23.04-24.064-31.744-57.344-23.552-89.088l.512-1.024c10.752-32.256 37.376-55.296 70.144-59.392l206.336-37.376 92.672-188.416c14.848-29.696 45.056-49.152 77.312-49.152 33.28 0 64.512 19.968 77.312 49.664l92.16 187.392 206.336 35.84c32.768 4.608 59.904 28.16 68.608 59.904 10.24 31.232 2.048 65.536-21.504 88.576l-.512.512-147.456 140.288 37.376 201.216c6.144 32.256-6.656 64.512-33.28 84.992-14.848 11.776-32.256 17.92-50.688 17.92z"/></svg>