<svg height="200" viewBox="0 0 1024 1024" width="200" xmlns="http://www.w3.org/2000/svg"><g fill="#707070"><path d="m551.05261787 940.56948102h-365.79802714c-66.73106321 0-121.15628203-53.72646423-121.15628202-119.79759195v-654.81068954c0-66.22640681 54.4252188-119.79759194 121.19510111-119.79759194h617.58259724c66.76988321 0 121.19510113 53.72646423 121.19510202 119.79759194v419.40803227h-79.96858129v-419.40803227c0-22.51542594-18.59463569-40.76068433-41.22652073-40.76068433h-617.62141633a40.91596343 40.91596343 0 0 0 -41.14888164 40.68304524v654.88832863c0 22.51542594 18.5558166 40.76068433 41.14888164 40.76068433h365.79802714z"/><path d="m686.30044986 977.83639241 261.17893795-273.52360144a45.80724555 45.80724555 0 0 0 0-62.84909388 40.99360253 40.99360253 0 0 0 -59.97643553 0l-202.4447325 212.03319855-64.59597944-67.662736a40.99360253 40.99360253 0 0 0 -59.97643554 0 45.88488466 45.88488466 0 0 0 0 62.81027298zm-409.00435254-745.33822787h442.66103189c18.74991479 0 34.00605664 15.99371644 34.00605665 35.63648403s-15.25614185 35.59766402-34.00605665 35.59766403h-442.69985098c-18.8275539-.07763909-34.04487665-16.03253554-34.00605665-35.59766403 0-19.64276758 15.25614185-35.63648402 34.00605665-35.63648402zm0 178.33769921h340.52640286c18.74991479 0 34.00605664 15.95489645 34.00605664 35.59766401s-15.25614185 35.63648402-34.00605665 35.63648403h-340.56522194c-18.8275539-.07763909-34.04487665-16.03253554-34.00605665-35.63648403 0-19.64276758 15.25614185-35.59766402 34.00605665-35.59766401zm0 178.2988792h204.26925808c18.78873479 0 34.00605664 15.99371644 34.00605663 35.63648401s-15.21732185 35.63648402-34.00605663 35.63648402h-204.30807717c-18.8275539-.11645909-34.04487665-16.03253554-34.00605665-35.63648402 0-19.64276758 15.25614185-35.63648402 34.00605665-35.63648401z"/></g></svg>