<svg height="200" viewBox="0 0 1024 1024" width="200" xmlns="http://www.w3.org/2000/svg"><path d="m921.04975771 647.04271208c-22.38495725 0-40.5469976 18.10480164-40.55494824 40.44842052v129.69410802a63.24358553 63.24358553 0 0 1 -18.70898404 45.13719414 63.56316685 63.56316685 0 0 1 -45.23577121 18.68354512h-130.01050891c-22.42470584 0-40.55494733 18.11275229-40.55494732 40.44842052 0 22.40085669 18.12865172 40.48816912 40.55494732 40.48816913h130.01050891a144.20243549 144.20243549 0 0 0 56.47515372-11.40632664c34.78977555-14.62439376 62.47722829-42.24824781 77.13183026-76.96011593a143.25323284 143.25323284 0 0 0 11.43017672-56.39088634v-129.69410802c0-22.33566824-18.12547129-40.44842051-40.53745721-40.44842052zm29.12477062-494.99072606c-22.71248737-53.55758806-75.33677315-88.36803325-133.62288343-88.39188241h-130.01050984c-22.38495725 0-40.54858737 18.11275229-40.54858736 40.45796001 0 22.3420282 18.16363012 40.45637023 40.54858736 40.45637023h130.01050984c8.66842685 0 17.02840346 1.68376101 24.8748241 4.99563409a64.49487939 64.49487939 0 0 1 20.36253595 13.694271 63.23563581 63.23563581 0 0 1 18.70898496 45.11334498v129.71159721c.51355504 21.97792899 18.51182988 39.52942698 40.54858737 39.52942699 22.02562732 0 40.03344255-17.55149799 40.54381809-39.52942699v-129.71159721c-.00317952-19.5564301-3.83178808-38.5070871-11.41586704-56.3256979zm-848.31340414 226.50956479c22.39290696-.01748919 40.53904788-18.12865172 40.53904789-40.47385943v-129.71159815a63.64425382 63.64425382 0 0 1 18.68195535-45.16104329 63.95747518 63.95747518 0 0 1 45.26121014-18.66764569h129.99937966a40.56289704 40.56289704 0 0 0 35.91546272-19.94278776 40.37369261 40.37369261 0 0 0 0-41.0192143 40.59151641 40.59151641 0 0 0 -35.91546272-19.95232818h-129.99937966c-38.47687798-.05564804-75.38765191 15.19200708-102.55041944 42.3690843a143.99574094 143.99574094 0 0 0 -42.48992079 102.34849601v129.73703706c.00158976 22.35156861 18.16363012 40.47385945 40.55812685 40.47385943zm234.4831828 502.46827823h-129.99937966a64.44877083 64.44877083 0 0 1 -45.22146061-18.64061608 63.55044693 63.55044693 0 0 1 -18.72170489-45.1785325v-129.69569869c0-22.34361889-18.15409064-40.45796001-40.5469976-40.45796001-22.39449673 0-40.54858737 18.1159318-40.54858737 40.45796001v129.69569869a144.20879454 144.20879454 0 0 0 42.48992079 102.38665392c13.29201202 13.28565299 28.80995948 23.68235966 46.10070646 30.95480794a143.9750722 143.9750722 0 0 0 56.4497139 11.41586705h129.99937874a40.55812776 40.55812776 0 0 0 35.12366563-20.23693019 40.34825368 40.34825368 0 0 0 0-40.46273019 40.56607748 40.56607748 0 0 0 -35.12525539-20.23851995zm417.62358281-161.67602512-95.54508395-95.37336966a214.60558255 214.60558255 0 0 0 40.70917243-125.83052013c0-118.85857421-96.56424434-215.23202435-215.71218984-215.23202436-119.14476598 0-215.70901033 96.37345014-215.70901031 215.23202436-.01748919 57.08887562 22.70135814 111.84210858 63.16090881 152.20944123 40.45796001 40.36733264 95.33362012 63.03848165 152.5481015 63.02099244a214.6882602 214.6882602 0 0 0 126.06424431-40.5517678l95.56893313 95.33362012a17.22714739 17.22714739 0 0 0 12.23151329 5.0846717c4.59178628 0 9.00390762-1.83003641 12.23310304-5.0846717l24.46461635-24.41373757a17.15559991 17.15559991 0 0 0 5.07354247-12.20289395 17.16195987 17.16195987 0 0 0 -5.08785123-12.19176468m-424.7084164-221.17845087c.00794972-84.93373301 69.02465768-153.77395645 154.14123517-153.75805607 85.1213477.00794972 154.11579624 68.87202139 154.09830705 153.79780467-.00953947 84.93532369-69.02624743 153.77395645-154.13964541 153.75646725-85.1261179-.00635996-154.11738601-68.87202139-154.09989681-153.79621585"/></svg>